<svg width="49" height="52" viewBox="0 0 49 52" fill="none" xmlns="http://www.w3.org/2000/svg">
<path d="M20.1172 35.8992V33.7419C24.6905 33.9079 28.3383 37.6969 28.3655 42.371C28.3655 43.505 28.1478 44.5836 27.7394 45.5793H25.3167C25.8611 44.6389 26.215 43.5603 26.215 42.371C26.215 38.8862 23.4928 36.0652 20.1172 35.9269V35.8992Z" fill="white"/>
<path d="M0 18.558C0 17.9496 0.489998 17.4794 1.06166 17.4794C1.27944 17.4794 1.47 17.5624 1.63333 17.673L2.31389 18.1432C5.30833 20.2728 6.96889 24.0065 6.96889 27.8509C6.96889 30.2017 6.34278 32.5803 5.03611 34.5992C4.00167 36.2034 3.48444 38.1117 3.48444 39.9924C3.48444 41.6518 3.86555 43.3113 4.68222 44.8048C5.93444 47.1556 7.94889 48.5938 10.2628 48.7874L10.8072 48.8427L10.535 48.3726C10.0178 47.5428 9.71833 46.5472 9.71833 45.4962V44.1133C9.71833 36.0927 14.2917 28.8742 21.6417 25.2787C26.215 23.0385 29.7539 18.9729 31.36 14.0775L35.7156 0.746746C35.8244 0.414859 36.0694 0.165944 36.3961 0.0553145L36.7228 0L37.3489 0.221258C39.0367 1.46584 40.18 3.29121 40.5883 5.33785V5.53145H40.8333L41.4867 5.58677C42.5756 5.6974 43.5828 6.16757 44.3994 6.91432L45.6517 8.07592H45.7333L47.4211 8.43547C48.3467 8.62907 49 9.45879 49 10.3991V10.648L48.7006 12.9989C48.51 14.4924 47.6117 15.82 46.305 16.5114L43.61 18.0049C42.0583 18.8623 41.0783 20.5217 41.0783 22.2918V24.3384C41.0783 27.1871 40.4794 29.9528 39.3089 32.5803L36.5867 38.6372C35.5522 40.9328 35.035 43.3666 35.035 45.8834V48.8427H38.955C38.955 48.8427 38.955 48.8427 38.9822 48.8427C39.5811 48.8427 40.0439 49.3406 40.0439 49.9214C40.0439 50.5022 39.5539 51 38.9822 51C38.9822 51 38.9822 51 38.955 51H33.9733C33.4017 51 32.9117 50.5022 32.9117 49.9214V45.8834C32.9117 43.0624 33.5106 40.3243 34.6539 37.7522L37.3761 31.6952C38.4106 29.372 38.9278 26.9105 38.9278 24.3661V22.5683L31.1422 19.4984L31.0333 19.692C28.9644 22.9279 26.0244 25.5553 22.5672 27.2424C15.9522 30.4783 11.8417 36.9501 11.8417 44.141V45.5239C11.8417 47.3769 13.3117 48.8704 15.1356 48.8704H29.0461V51.0277H10.78C7.51333 51.0277 4.54611 49.1193 2.80389 45.8834C1.85111 44.0857 1.36111 42.039 1.36111 40.0477C1.36111 37.7245 1.98722 35.4013 3.26667 33.4376C4.35556 31.7505 4.87278 29.7592 4.87278 27.8232C4.87278 24.7256 3.56611 21.6833 1.11611 19.9409L0.435555 19.4707C0.16333 19.2495 0 18.9452 0 18.5857V18.558ZM39.2 20.3281L39.2817 20.0515C39.8261 18.3921 40.9694 16.9539 42.5483 16.0965L45.2433 14.603C45.9511 14.2158 46.4411 13.4967 46.5228 12.6947L46.8222 10.5374L46.5772 10.4821L44.9711 10.1502L44.3994 9.84599L42.9567 8.51844C42.4939 8.07592 41.895 7.82701 41.2689 7.74403L39.5539 7.55043C39.0367 7.49512 38.6283 7.0526 38.6011 6.55477C38.5194 5.42082 38.1656 4.34219 37.5394 3.4295L37.24 2.98698L33.3744 14.7413C33.1022 15.6264 32.7483 16.4561 32.34 17.2858L32.2039 17.5624L39.2272 20.3281H39.2Z" fill="white"/>
</svg>
