<svg width="12" height="12" viewBox="0 0 12 12" fill="none" xmlns="http://www.w3.org/2000/svg">
<path fill-rule="evenodd" clip-rule="evenodd" d="M3.75 0H8.25C10.3208 0 12 1.67925 12 3.75V8.25C12 10.3208 10.3208 12 8.25 12H3.75C1.67925 12 0 10.3208 0 8.25V3.75C0 1.67925 1.67925 0 3.75 0ZM8.24999 10.875C9.69749 10.875 10.875 9.6975 10.875 8.25V3.75C10.875 2.3025 9.69749 1.125 8.24999 1.125H3.74999C2.30249 1.125 1.12499 2.3025 1.12499 3.75V8.25C1.12499 9.6975 2.30249 10.875 3.74999 10.875H8.24999Z" fill="black"/>
<path fill-rule="evenodd" clip-rule="evenodd" d="M3 6C3 4.34325 4.34325 3 6 3C7.65675 3 9 4.34325 9 6C9 7.65675 7.65675 9 6 9C4.34325 9 3 7.65675 3 6ZM4.12499 6C4.12499 7.0335 4.96649 7.875 5.99999 7.875C7.03349 7.875 7.87499 7.0335 7.87499 6C7.87499 4.96575 7.03349 4.125 5.99999 4.125C4.96649 4.125 4.12499 4.96575 4.12499 6Z" fill="black"/>
<path d="M9.22507 3.17474C9.44584 3.17474 9.62482 2.99577 9.62482 2.77499C9.62482 2.55422 9.44584 2.37524 9.22507 2.37524C9.00429 2.37524 8.82532 2.55422 8.82532 2.77499C8.82532 2.99577 9.00429 3.17474 9.22507 3.17474Z" fill="black"/>
</svg>
