<svg width="44" height="89" viewBox="0 0 44 89" fill="none" xmlns="http://www.w3.org/2000/svg">
<g clip-path="url(#clip0_159_3917)">
<path d="M7.98053 69.1781C7.61735 68.8615 7.18899 68.6287 6.70476 68.4983C6.22053 68.3586 5.55937 68.2935 4.68402 68.2935H1.84381C1.27577 68.2935 0.847408 68.4238 0.568043 68.6939C0.279366 68.9639 0.130371 69.3923 0.130371 69.9603V78.3692C0.130371 78.8814 0.260741 79.2911 0.51217 79.5705C0.772911 79.8685 1.12677 80.0082 1.54582 80.0082C1.96487 80.0082 2.30011 79.8592 2.56085 79.5612C2.82159 79.2725 2.95196 78.8628 2.95196 78.3413V75.5663H4.6654C6.09016 75.5663 7.18899 75.2496 7.92466 74.635C8.67894 74.0018 9.06074 73.0706 9.06074 71.8693C9.06074 71.3106 8.96762 70.7984 8.78138 70.3421C8.59513 69.8858 8.31577 69.4854 7.96191 69.1688M6.19259 71.9066C6.19259 72.2418 6.1181 72.5026 5.97841 72.6981C5.83873 72.8937 5.62455 73.0334 5.33587 73.1265C5.01926 73.2289 4.60952 73.2755 4.12529 73.2755H2.95196V70.5656H4.12529C5.24275 70.5656 5.68974 70.7798 5.85736 70.9474C6.09016 71.1895 6.20191 71.5062 6.20191 71.9066" fill="black"/>
<path d="M21.3063 77.4473H16.4639V74.9702H20.7382C21.1573 74.9702 21.4925 74.8585 21.716 74.6536C21.9395 74.4395 22.0605 74.1601 22.0605 73.8249C22.0605 73.4896 21.9395 73.2009 21.7067 72.9961C21.4832 72.7912 21.1573 72.6888 20.7382 72.6888H16.4639V70.6308H21.1293C21.5577 70.6308 21.8929 70.5283 22.1257 70.3142C22.3678 70.1 22.4796 69.8113 22.4796 69.4668C22.4796 69.1222 22.3585 68.8335 22.1257 68.6193C21.8929 68.4052 21.567 68.3027 21.1293 68.3027H15.2906C14.9367 68.3027 14.6294 68.3586 14.3873 68.4704C14.1173 68.5914 13.9217 68.7963 13.7913 69.057C13.6796 69.2991 13.6237 69.6064 13.6237 69.9696V78.1736C13.6237 78.7324 13.7634 79.1514 14.0335 79.4308C14.3035 79.7008 14.7319 79.8405 15.2906 79.8405H21.2969C21.7253 79.8405 22.0605 79.7288 22.2933 79.5146C22.5355 79.3004 22.6565 79.0024 22.6565 78.6579C22.6565 78.3133 22.5355 78.006 22.2933 77.7825C22.0605 77.5683 21.7253 77.4566 21.2969 77.4566" fill="black"/>
<path d="M35.5818 68.6287C35.3397 68.4052 34.9765 68.2935 34.5202 68.2935H27.4895C27.0519 68.2935 26.7073 68.3959 26.4559 68.6101C26.1951 68.8336 26.0555 69.1409 26.0555 69.5133C26.0555 69.8858 26.1858 70.1745 26.4372 70.4073C26.6794 70.6308 27.0332 70.7426 27.4895 70.7426H29.5941V78.3599C29.5941 78.8907 29.7244 79.3004 29.9852 79.5891C30.2552 79.8778 30.5998 80.0268 31.0188 80.0268C31.4379 80.0268 31.7731 79.8778 32.0339 79.5984C32.2946 79.3191 32.425 78.9093 32.425 78.3692V70.7519H34.5202C34.9765 70.7519 35.3304 70.6401 35.5725 70.4259C35.8239 70.2025 35.9636 69.8952 35.9636 69.532C35.9636 69.1688 35.8332 68.8708 35.5818 68.638" fill="black"/>
<path d="M6.63959 82.839H5.44763V88.24H6.63959V82.839Z" fill="black"/>
<path d="M9.99196 82.8389H11.7706C12.1989 82.8389 12.618 82.8855 12.9998 82.9786C13.3909 83.0717 13.7261 83.23 14.0148 83.4442C14.3035 83.6584 14.5363 83.9378 14.7039 84.2823C14.8715 84.6269 14.9553 85.0459 14.9553 85.5395C14.9553 85.9771 14.8715 86.3589 14.7039 86.6942C14.5363 87.0294 14.3128 87.3088 14.0334 87.5323C13.7541 87.7558 13.4281 87.9327 13.065 88.0444C12.7018 88.1562 12.3107 88.2214 11.9103 88.2214H9.96402V82.8203L9.99196 82.8389ZM11.1839 87.1412H11.7985C12.0779 87.1412 12.3293 87.1132 12.5621 87.0574C12.7949 87.0015 12.9998 86.9084 13.1767 86.778C13.3536 86.6476 13.484 86.48 13.5865 86.2658C13.6889 86.0516 13.7354 85.8002 13.7354 85.4929C13.7354 85.2322 13.6889 84.9994 13.5865 84.8038C13.484 84.6083 13.3536 84.4499 13.186 84.3196C13.0184 84.1892 12.8229 84.0961 12.5994 84.0309C12.3759 83.9657 12.1338 83.9378 11.8823 83.9378H11.1839V87.1412Z" fill="black"/>
<path d="M18.1028 82.839H21.7625V83.9378H19.2855V84.9435H21.6322V86.0424H19.2855V87.1412H21.9022V88.24H18.1028V82.839Z" fill="black"/>
<path d="M26.9029 82.839H27.89L30.2366 88.24H28.8957L28.4301 87.0947H26.3348L25.8878 88.24H24.5748L26.9029 82.839ZM27.3592 84.4127L26.7073 86.0889H28.0296L27.3685 84.4127H27.3592Z" fill="black"/>
<path d="M24.4817 25.4201C24.0068 23.7812 22.7589 22.2633 20.9431 22.2633C19.1272 22.2633 17.8887 23.6788 17.4603 25.4294C17.4603 25.4294 17.451 25.4294 17.4417 25.4294C16.8271 26.1837 13.9403 26.9939 13.9403 28.9308C13.9403 30.8678 15.5048 32.4322 17.4417 32.4322C19.2576 32.4322 20.105 30.8119 21.0455 30.9422C21.0269 30.9422 21.0269 30.9422 21.0455 30.9422C21.3342 30.7281 22.6658 32.4322 24.4817 32.4322C26.4093 32.4322 27.9831 30.8678 27.9831 28.9308C27.9831 26.9939 25.7854 26.4724 24.4817 25.4294" fill="black"/>
<path d="M16.0914 21.062C16.8178 22.3192 16.6595 23.7626 15.7376 24.2933C14.8157 24.8241 13.484 24.2375 12.7577 22.9896C12.0313 21.7325 12.1896 20.2891 13.1115 19.7583C14.0334 19.2275 15.3651 19.8142 16.0914 21.062Z" fill="black"/>
<path d="M25.6643 21.062C24.938 22.3192 25.0963 23.7626 26.0182 24.2933C26.9401 24.8241 28.2717 24.2375 28.9981 22.9896C29.7244 21.7325 29.5661 20.2891 28.6442 19.7583C27.7223 19.2275 26.3907 19.8142 25.6643 21.062Z" fill="black"/>
<path d="M21.5949 17.3837C21.2131 18.9109 21.8091 20.3729 22.9266 20.6616C24.044 20.941 25.2639 19.9353 25.655 18.4174C26.0368 16.8902 25.4502 15.4282 24.3234 15.1395C23.2059 14.8601 21.986 15.8658 21.5949 17.3837Z" fill="black"/>
<path d="M20.0863 17.3837C20.4681 18.9109 19.8722 20.3729 18.7547 20.6616C17.6372 20.941 16.4173 19.9353 16.0262 18.4174C15.6444 16.8902 16.2404 15.4282 17.3579 15.1395C18.4753 14.8601 19.6952 15.8658 20.0863 17.3837Z" fill="black"/>
<path d="M19.6952 0.482178H3.52931C1.58307 0.482178 0 2.06525 0 4.01149V59.391C0 61.3279 1.58307 62.9203 3.52931 62.9203H6.29503C8.23196 62.9203 9.82434 61.3372 9.82434 59.391V11.126C9.82434 10.7163 10.1503 10.3903 10.56 10.3903H19.6952V10.4276C27.6199 10.4276 34.0639 16.8716 34.0639 24.7963C34.0639 32.7209 27.6199 39.1649 19.6952 39.1649H12.9439V49.101H19.6952C33.0955 49.101 44 38.1965 44 24.7963C44 11.396 33.0955 0.482178 19.6952 0.482178Z" fill="black"/>
</g>
<defs>
<clipPath id="clip0_159_3917">
<rect width="44" height="87.7579" fill="white" transform="translate(0 0.482178)"/>
</clipPath>
</defs>
</svg>
