<svg width="52" height="45" viewBox="0 0 52 45" fill="none" xmlns="http://www.w3.org/2000/svg">
<path fill-rule="evenodd" clip-rule="evenodd" d="M41.9252 0.466053C41.7424 0.466053 41.5857 0.491945 41.4028 0.543728C41.0894 0.621404 40.776 0.802647 40.5148 1.00978C40.4365 1.06157 40.332 1.13924 40.2537 1.21692C40.0708 1.37227 39.9402 1.55351 39.8097 1.73475C39.4179 2.35616 39.3134 3.13291 39.4962 3.83199C39.5746 4.09091 39.6791 4.32394 39.8358 4.55696C39.8619 4.58285 39.888 4.63464 39.9141 4.66053C39.9664 4.7382 39.9664 4.71231 40.0186 4.78999C40.097 4.91945 40.2014 5.02302 40.2798 5.12658C40.5671 5.41139 40.9066 5.59264 41.2722 5.77388C41.4551 5.85155 41.6379 5.92923 41.8207 6.0069C42.1602 6.13636 42.4998 6.23993 42.8393 6.36939C43.6751 6.68009 44.4586 7.17204 45.0593 7.84522C45.216 8.02647 45.3727 8.18182 45.4772 8.38895C45.7122 8.75144 45.8167 9.16571 45.8167 9.60587C45.8167 9.94246 45.7645 10.2791 45.66 10.5898C45.6078 10.7192 45.5816 10.8746 45.5033 11.004C45.4772 11.1076 45.4249 11.2112 45.3727 11.2888C45.2943 11.4183 45.216 11.5478 45.1115 11.6513C44.8503 11.962 44.5631 12.2468 44.2496 12.5058C43.8579 12.8682 43.4139 13.2048 42.996 13.5155H42.9438C42.1341 13.0495 41.2461 12.8941 40.3581 12.8165C39.7835 12.7647 39.1828 12.7388 38.6083 12.687C38.3732 12.687 38.1381 12.6352 37.9292 12.6093C37.6419 12.5834 37.3807 12.5575 37.0934 12.5575C36.1532 12.5575 35.213 12.687 34.2727 12.8682C34.0638 12.9028 33.8462 12.9459 33.6198 12.9977C32.8885 13.1531 32.1833 13.3343 31.452 13.4896C30.7469 13.645 30.0156 13.7745 29.3104 13.8003C28.9448 13.8003 28.5791 13.8003 28.2135 13.7486C27.8478 13.7227 27.5083 13.6709 27.1427 13.645C26.7509 13.5932 26.3591 13.5414 25.9935 13.4638C25.8107 13.412 25.6278 13.3861 25.445 13.3084C25.3144 13.2566 25.1577 13.1789 25.0533 13.1013C24.9488 13.0236 24.8704 12.8941 24.7921 12.7906C24.7137 12.6611 24.6615 12.5575 24.5831 12.4281C24.4003 12.0397 24.2175 11.6513 24.0347 11.2629C22.8855 8.98446 21.7363 6.70598 20.561 4.4275L20.4566 4.22037L20.3782 4.01323C20.0909 3.39183 19.8559 2.71864 19.5163 2.14902C19.2813 1.76064 18.994 1.42405 18.6283 1.13924C17.662 0.362486 16.3822 0.155351 15.1808 0.0517837C14.8152 0.0258918 14.4495 0 14.0578 0C13.9794 0 13.5615 0 13.5093 0C13.4048 0 12.8825 0.0517837 12.778 0.0776755C12.2295 0.129459 11.6811 0.207135 11.1326 0.310702C10.0618 0.491945 8.99097 0.750863 8.02462 1.2687L7.73733 1.44994C7.60674 1.63119 7.52839 1.70886 7.42392 1.86421C7.26722 2.09724 7.13663 2.33026 7.00604 2.56329C6.84934 2.89989 6.69263 3.21059 6.53593 3.54718C6.3531 3.90967 6.17028 4.29804 5.80463 4.47929C5.7524 4.50518 5.70016 4.53107 5.64793 4.55696C5.17781 4.71231 4.68158 4.81588 4.21146 4.91945C3.66299 5.02302 3.14065 5.12658 2.59218 5.23015C2.25265 5.30783 1.91312 5.3855 1.59971 5.48907C1.39077 5.56674 1.39077 5.56674 1.18183 5.64442C1.02513 5.79977 0.842308 5.95512 0.71172 6.13636C0.476662 6.42117 0.293835 6.75777 0.16325 7.09436C-0.0718079 7.76755 -0.019577 8.49252 0.111012 9.1916C0.346069 10.5639 0.920658 11.9361 1.99148 12.8165C2.12207 12.9459 2.27877 13.0495 2.43547 13.1272C2.64442 13.2566 2.85336 13.3602 3.0623 13.4379C3.40182 13.5673 3.74135 13.645 4.10699 13.6709L7.2411 13.8003C7.52839 13.8003 7.81569 13.8003 8.10298 13.8262C8.41639 13.8262 8.70368 13.878 8.99098 13.9816C9.04321 13.9816 9.09544 14.0334 9.14768 14.0593C9.14768 14.0593 9.19991 14.0852 9.22603 14.111C9.67003 14.6548 10.0096 15.3021 10.2707 15.9494C10.6886 16.9074 11.002 17.9171 11.1326 18.9269C11.1326 19.0305 11.1413 19.1254 11.1587 19.2117C11.1848 19.7296 11.211 20.2215 11.2371 20.7394C11.3154 21.9822 11.4199 23.225 11.5766 24.4678C11.6288 24.882 11.6811 25.3222 11.7594 25.7365C11.8117 26.0731 11.8639 26.4356 11.9423 26.7722C12.0206 27.057 12.099 27.3159 12.2295 27.5748C12.4907 28.1962 12.8564 28.7658 13.2743 29.3096C13.7966 30.0086 14.3973 30.6559 14.998 31.2773C15.2592 31.5621 15.5465 31.847 15.8338 32.1059L18.2888 37.9574V38.0351C18.3672 38.1904 18.4194 38.3458 18.4455 38.5012C18.4455 38.527 18.4455 38.5788 18.4455 38.6047C18.4455 38.6047 18.4455 38.6047 18.4455 38.6306C18.3933 38.7083 18.3149 38.7601 18.2627 38.8119C18.1321 38.9154 18.0015 39.0449 17.8709 39.1484C17.5053 39.485 17.1919 39.8993 16.9829 40.3395C16.8524 40.5984 16.7479 40.8832 16.6956 41.168C16.6956 41.2198 16.6434 41.4269 16.6434 41.4528C16.6434 41.5305 16.6434 41.6082 16.6434 41.66C16.6434 41.8412 16.6695 41.9966 16.6956 42.1519C16.8523 42.9545 17.2702 43.6795 17.8709 44.2232C18.0799 44.4045 18.2888 44.534 18.5239 44.6634C18.6545 44.7411 18.785 44.7929 18.9156 44.8705L21.9192 44.9741C22.1803 44.9223 22.4154 44.8447 22.6766 44.7411C23.3556 44.4304 23.878 43.8867 24.2697 43.2652C24.3394 43.1444 24.409 43.015 24.4787 42.8769L25.3928 39.5109L24.5831 35.2388C24.4264 34.8763 24.2958 34.5138 24.2175 34.1254C24.0347 33.1933 24.113 32.2353 24.322 31.3291C24.3742 31.1479 24.4264 30.9666 24.4787 30.7854H24.7921C26.3853 30.7077 27.9523 30.4229 29.4932 29.931C29.7022 29.8533 29.9111 29.7756 30.1201 29.6979C30.3029 29.6203 30.4857 29.5426 30.6685 29.4649L34.9257 27.9373H35.1346H35.2913C35.6309 27.9373 35.9965 27.9114 36.336 27.9373C36.5711 27.9632 36.8323 28.015 37.0412 28.1703C37.1718 28.248 37.3024 28.3774 37.4068 28.5069C37.4591 28.5846 37.5374 28.6881 37.5897 28.7658C37.6941 28.973 37.7986 29.1801 37.9031 29.3613C38.0859 29.672 38.2687 29.9827 38.4777 30.2934C39.1828 31.3291 40.0186 32.2871 40.9327 33.1415C41.1155 33.3228 41.3245 33.504 41.5073 33.6594C42.1341 34.0737 42.7871 34.4102 43.4661 34.7209C43.7534 34.8504 44.0146 34.9799 44.3019 35.0834C44.6153 35.2129 44.9287 35.3424 45.2421 35.4718L45.3205 37.4396C45.3205 37.6985 45.3205 37.9833 45.3205 38.2422C45.3205 38.3976 45.2421 38.5788 45.1899 38.7083C45.1899 38.7342 45.1376 38.786 45.1115 38.8119C45.0332 38.8895 44.9548 38.9154 44.8765 38.9931C44.772 39.0708 44.6936 39.1226 44.5892 39.2002C44.2235 39.5109 43.9101 39.8734 43.7273 40.3136C43.5706 40.702 43.4922 41.1162 43.5183 41.5305C43.5183 41.7376 43.5706 41.9189 43.5967 42.126C43.6228 42.359 43.6751 42.5662 43.7273 42.7992C43.884 43.317 44.1713 43.809 44.5892 44.1715C44.9026 44.4304 45.2682 44.6375 45.6339 44.767C45.8428 44.8447 46.0517 44.8705 46.2868 44.9223L48.6374 44.8447C49.003 44.7411 49.3687 44.6116 49.7082 44.4045C50.335 44.042 50.8051 43.5242 51.0924 42.851C51.223 42.5662 51.3014 42.2814 51.3536 41.9965L51.9282 35.9379C52.0065 34.8763 52.0327 33.7888 51.7976 32.7273C51.667 32.1835 51.4581 31.6657 51.223 31.1738C51.0924 30.889 50.9357 30.6041 50.779 30.3193C50.6223 30.0086 50.4656 29.6979 50.3089 29.3613C50.0216 28.7917 49.7082 28.1962 49.4209 27.6266C49.212 27.1605 49.003 26.7204 48.8202 26.2543C48.6896 25.8918 48.559 25.5293 48.4807 25.141C48.4807 25.0633 48.4807 24.9856 48.4546 24.9079C48.4546 24.7785 48.4546 24.5196 48.4546 24.3901C48.4546 24.0017 48.4546 23.6392 48.4546 23.2509C48.4023 22.2411 48.2979 21.2572 48.0106 20.2992C47.9061 19.9626 47.8016 19.6519 47.671 19.3412L47.5666 19.1341C47.5666 19.1341 47.436 18.8751 47.3576 18.7457L47.4621 18.6162C47.7494 18.202 48.0628 17.7877 48.3501 17.3734C48.7157 16.8297 49.0814 16.2601 49.447 15.7163C49.6037 15.4833 49.7604 15.2503 49.9171 14.9914C50.3873 14.1628 50.7007 13.2566 50.9096 12.3245C51.0141 11.8326 51.0924 11.3406 51.1708 10.8487C51.223 10.5121 51.2491 10.1755 51.2491 9.8389C51.2491 9.5023 51.2491 9.16571 51.1969 8.85501C51.0924 8.13004 50.8835 7.40506 50.6223 6.70598C50.2828 5.85155 49.8388 5.04891 49.2903 4.32394C48.8463 3.75432 48.2979 3.28826 47.7494 2.8481C46.8614 2.12313 45.895 1.52762 44.8242 1.11335C44.5369 1.00978 44.2496 0.906214 43.9623 0.828539C43.6751 0.750863 43.3878 0.699079 43.1005 0.647296C42.8393 0.595512 42.552 0.543728 42.2908 0.517837C42.1864 0.517837 42.0819 0.517837 42.0035 0.517837L41.9252 0.466053ZM13.5877 1.916H13.7705C14.5018 1.916 15.2331 1.96778 15.9644 2.09724C16.5128 2.20081 17.0874 2.35616 17.5314 2.74453C17.7142 2.89988 17.8448 3.10702 17.9493 3.31415C18.0015 3.44361 18.0799 3.54718 18.1321 3.67664C18.3672 4.22037 18.6022 4.7641 18.8634 5.30783C20.0126 7.58631 21.1879 9.86479 22.337 12.1433C22.4937 12.4799 22.6504 12.8165 22.8071 13.153C22.9639 13.4638 23.1467 13.8003 23.3556 14.0852C23.5123 14.2664 23.669 14.4476 23.8518 14.603C24.5309 15.1726 25.445 15.3539 26.3069 15.4833C26.5158 15.5092 26.7248 15.5351 26.9337 15.561C27.221 15.5869 27.3516 15.6128 27.665 15.6387C28.0045 15.6646 28.3179 15.6904 28.6314 15.7163C29.5194 15.7681 30.3551 15.6387 31.217 15.4833C31.4259 15.4488 31.6349 15.4056 31.8438 15.3539C32.784 15.1467 33.6982 14.9396 34.6384 14.7583C35.6047 14.5771 36.6233 14.4217 37.6158 14.4994C37.9031 14.4994 38.1643 14.5771 38.4515 14.603C39.209 14.6548 39.9402 14.6807 40.6977 14.7842C41.1678 14.8619 41.664 14.9655 42.108 15.1726C42.1864 15.2244 42.2647 15.2503 42.3169 15.3021C42.552 15.4833 42.7609 15.6904 42.996 15.8717L43.8056 15.3021C44.5631 14.7842 45.2682 14.2146 45.9473 13.5673C46.3652 13.1789 46.783 12.7388 47.0703 12.2209C47.1748 12.0397 47.2532 11.8585 47.3315 11.6772C47.436 11.3924 47.5404 11.1076 47.6188 10.7969C47.7494 10.3308 47.8016 9.8389 47.7755 9.34695C47.7755 9.06214 47.7233 8.77733 47.6449 8.51841C47.4621 7.76755 47.0703 7.12025 46.5741 6.55063C45.8689 5.74799 45.007 5.15247 44.0407 4.71231C43.884 4.63464 43.7012 4.55696 43.5183 4.50518C43.1266 4.34983 42.7348 4.22037 42.3431 4.09091C42.1864 4.03913 42.0558 3.96145 41.8991 3.90967C41.7946 3.85788 41.6901 3.8061 41.6118 3.70253C41.5595 3.65075 41.5334 3.57307 41.4812 3.4954L41.3506 3.39183C41.3506 3.39183 41.2984 3.1847 41.2984 3.08113C41.2984 2.92578 41.3506 2.74453 41.4812 2.61507C41.5334 2.56329 41.6118 2.51151 41.664 2.45972C41.7424 2.40794 41.8207 2.35616 41.8991 2.33026C41.9774 2.33026 42.0819 2.33026 42.1602 2.33026C42.3169 2.33026 42.4736 2.38205 42.6304 2.40794C43.1266 2.51151 43.5967 2.61508 44.0668 2.79632C45.1115 3.1847 46.0256 3.83199 46.8614 4.55696C47.0965 4.7641 47.3576 4.99712 47.5666 5.23015C48.1412 5.87745 48.559 6.68009 48.8463 7.48274C49.0814 8.10414 49.2381 8.77733 49.2903 9.45052C49.2903 9.70944 49.2903 9.99425 49.2381 10.2532C49.1859 10.7192 49.1075 11.1853 49.0291 11.6513C48.8463 12.454 48.6374 13.2825 48.1934 13.9816C47.6449 14.8101 47.1226 15.6387 46.5741 16.4413C46.2607 16.9074 45.9473 17.3475 45.6078 17.7877L45.0332 18.5127C45.216 18.8234 45.4249 19.16 45.6078 19.4707C45.7383 19.6778 45.8428 19.859 45.9473 20.0662V20.1438L46.0256 20.2474C46.4435 21.4125 46.548 22.6812 46.5741 23.8982C46.5741 24.2089 46.5741 24.5196 46.5741 24.8562V25.0115V25.1151C46.7047 25.9954 47.0181 26.8239 47.3576 27.6266C47.4621 27.8855 47.5927 28.1444 47.7233 28.4033C48.1673 29.3096 48.6374 30.2158 49.0814 31.122C49.2642 31.4845 49.447 31.8211 49.6037 32.1835C49.7343 32.4684 49.8388 32.7791 49.9171 33.0898C50.0477 33.7112 50.0738 34.3326 50.0477 34.954C50.0477 35.2129 50.0477 35.4459 50.0216 35.7048L49.3948 41.6082C49.3687 41.7894 49.3164 41.9448 49.2381 42.1001C49.0291 42.4885 48.6635 42.7215 48.2717 42.851L46.3652 42.9287C46.3652 42.9287 46.1562 42.8769 46.0517 42.8251C45.9734 42.7992 45.8689 42.7474 45.8167 42.6956C45.5294 42.4626 45.4772 42.1001 45.4249 41.7635C45.3988 41.5046 45.3205 41.2198 45.451 40.9868C45.5033 40.9091 45.5555 40.8314 45.6078 40.7796C45.66 40.7279 45.7383 40.6761 45.7906 40.6243C45.9212 40.5207 46.0779 40.443 46.2085 40.3395C46.3129 40.2618 46.4174 40.1582 46.4957 40.0547C47.0442 39.4074 47.2009 38.5012 47.2009 37.6726C47.2009 37.5432 47.2009 37.4396 47.2009 37.3101C47.1487 36.2486 47.0965 35.1611 47.0703 34.0995C46.0256 33.7112 45.007 33.3228 43.9885 32.8308C43.7012 32.7014 43.4139 32.546 43.1266 32.3907C42.9699 32.313 42.8915 32.2612 42.7609 32.1835C42.7348 32.1835 42.6826 32.1318 42.6565 32.1059C42.3431 31.847 42.0558 31.5621 41.7946 31.2773C41.0894 30.5783 40.4365 29.8015 39.9141 28.9471C39.8358 28.7917 39.7313 28.6623 39.653 28.5069C39.5224 28.2739 39.4179 28.0667 39.3134 27.8337C39.209 27.6525 39.0784 27.4453 38.9478 27.2641C38.5038 26.6945 37.9292 26.2802 37.2501 26.099C36.8845 25.9954 36.4927 25.9436 36.101 25.9436C35.6047 25.9436 35.0824 25.9436 34.5862 25.9954L30.0156 27.6266C29.1015 28.015 28.1351 28.2998 27.1427 28.5069C26.1763 28.6881 25.1838 28.8176 24.2175 28.8176C23.878 28.8176 23.5123 28.7917 23.1728 28.7658C22.9116 29.5167 22.6504 30.2417 22.4676 31.0184C22.2587 31.9505 22.1803 32.9085 22.2848 33.8665C22.337 34.2808 22.4154 34.6692 22.5199 35.0834C22.5547 35.2215 22.5982 35.3596 22.6504 35.4977C22.7027 35.653 22.7027 35.653 22.7549 35.7825L23.4601 39.4333L22.7288 42.1778C22.546 42.5144 22.3109 42.7992 21.9975 42.9804C21.9192 43.0063 21.8669 43.0322 21.7886 43.0581L19.438 42.9804H19.4119C19.2552 42.8769 19.1246 42.7733 19.0201 42.6697C18.7589 42.3849 18.6283 42.0224 18.6022 41.6341V41.5823C18.7067 41.2457 18.8895 40.9609 19.1246 40.702C19.2029 40.6243 19.2813 40.5466 19.3596 40.4689C19.4902 40.3654 19.5947 40.2618 19.7253 40.1582C19.882 40.0288 20.0126 39.8734 20.117 39.7181C20.1954 39.5886 20.2737 39.485 20.2999 39.3297C20.326 39.2261 20.3782 39.1226 20.3782 39.019C20.5088 38.3976 20.326 37.8021 20.117 37.2325L17.4792 30.9925L16.9568 30.4747L16.774 30.2934C16.1472 29.6461 15.5204 28.9989 14.9719 28.2998C14.5018 27.7043 14.11 27.0829 13.9011 26.3579C13.9011 26.2802 13.875 26.2025 13.8488 26.1508C13.5093 24.3383 13.3526 22.5 13.222 20.6358C13.1959 20.118 13.1698 19.6001 13.1437 19.0823C13.0653 18.202 12.8564 17.3475 12.5952 16.519C12.3601 15.7681 12.0467 15.0173 11.6811 14.3182C11.446 13.8521 11.1848 13.412 10.8453 12.9977C10.767 12.92 10.7147 12.8423 10.6364 12.7647C10.5841 12.7129 10.5319 12.6352 10.4797 12.6093C10.4536 12.5834 10.2446 12.454 10.1663 12.4022C9.87897 12.2468 9.56556 12.1174 9.25215 12.0397C8.99097 11.9879 8.75592 11.962 8.49474 11.9361C8.35545 11.9361 8.21616 11.9275 8.07686 11.9102C6.7971 11.8585 5.54346 11.9102 4.2637 11.7549H4.21146C4.08088 11.729 3.92417 11.7031 3.79358 11.6254C3.03617 11.3406 2.56606 10.5898 2.30489 9.86479C2.25265 9.70944 2.20042 9.55409 2.14818 9.39874C2.09595 9.21749 2.06983 9.03625 2.04371 8.82911C2.01759 8.62198 1.99148 8.41485 1.96536 8.18182C1.96536 8.00058 1.96535 7.79344 2.04371 7.63809C2.09594 7.50863 2.20042 7.37917 2.30489 7.24971H2.35712C2.35712 7.24971 2.43547 7.19793 2.53994 7.17204C2.72277 7.12025 2.87947 7.09436 3.0623 7.04258C3.92418 6.86134 4.78605 6.73188 5.62181 6.49885C5.93522 6.42117 6.27475 6.3435 6.56205 6.21404C6.7971 6.11047 7.00604 5.98101 7.21498 5.82566C7.65898 5.46318 7.97239 4.97123 8.25969 4.47929C8.4425 4.1168 8.59921 3.75432 8.78203 3.39183C8.86039 3.21059 8.96486 3.05524 9.06932 2.87399H9.09544C9.67003 2.58918 10.2707 2.40794 10.8714 2.27848C11.7072 2.09724 12.543 1.99367 13.4048 1.8901C13.5093 1.8901 13.5877 1.8901 13.6921 1.86421L13.5877 1.916ZM13.1175 5.74799L12.8564 6.83544C12.7258 7.45685 12.6213 8.07825 12.5952 8.69965C12.5168 10.5121 12.9086 12.4022 13.875 13.9557C14.0839 14.2923 14.319 14.603 14.554 14.8878C14.7629 15.1467 14.998 15.3797 15.2592 15.5869C15.4681 15.7681 15.7032 15.9494 15.9382 16.1047C16.0949 16.2083 16.2516 16.286 16.4084 16.3895C17.1396 16.8038 17.9754 17.1404 18.8373 16.9592C18.9679 16.9333 19.0985 16.8815 19.229 16.8297C19.3596 16.7779 19.4641 16.7261 19.5947 16.6484C19.7775 16.519 19.9342 16.3895 20.0648 16.2342C20.6133 15.5869 20.8222 14.7066 20.9528 13.9039C20.9789 13.6709 21.005 13.4638 21.0312 13.2307C21.0834 12.687 21.1356 12.1692 21.1879 11.6254L19.3074 11.4183L19.1507 12.7906C19.0985 13.2825 19.0462 13.7745 18.9156 14.2664C18.8634 14.5253 18.7589 14.7842 18.6022 14.9914C18.6022 14.9914 18.55 15.0432 18.5239 15.0432C18.4716 15.069 18.3933 15.069 18.3149 15.0432C18.1843 15.0432 18.0538 14.9914 17.9232 14.9396C17.6881 14.8619 17.4269 14.7325 17.218 14.5771C16.9568 14.4218 16.7218 14.2664 16.5128 14.0593C16.3039 13.878 16.0949 13.6709 15.9121 13.4638C14.8674 12.2209 14.4495 10.5121 14.5018 8.90679C14.5018 8.5443 14.554 8.15593 14.6062 7.79344C14.6062 7.66398 14.6585 7.50863 14.6846 7.37917C14.7891 6.9649 14.8674 6.57653 14.9719 6.16226C14.3451 6.00691 13.7444 5.85155 13.1175 5.72209V5.74799Z" fill="black"/>
</svg>
