<svg width="71" height="36" viewBox="0 0 71 36" fill="none" xmlns="http://www.w3.org/2000/svg">
<path fill-rule="evenodd" clip-rule="evenodd" d="M18.5339 20.2761C19.0539 20.2761 19.4737 20.4285 19.8972 20.6848C20.1239 20.8185 20.0941 20.8148 20.2502 20.9597L20.4768 21.1826C20.6514 21.3795 20.5882 21.2606 20.774 21.5764C20.8966 21.7844 20.9746 21.9107 21.0712 22.1522C21.1603 22.3751 21.2346 22.5906 21.2941 22.8283C21.6581 24.24 21.4612 26.2535 20.8223 27.4051C20.4396 28.0961 19.6483 28.7759 18.5896 28.7759C17.6423 28.7759 17.0665 28.527 16.5649 27.7655C16.056 26.9965 16.186 26.4058 16.186 25.7705V21.5058C16.2269 21.2755 16.3829 21.1417 16.5724 20.9931C17.0962 20.5771 17.8429 20.2761 18.5301 20.2761M16.16 20.8445C16.16 20.5176 16.2269 20.0384 16.1154 19.7783C15.8777 19.2285 15.417 19.2731 14.9564 19.4291L14.0165 19.7523C13.8976 19.7932 13.437 19.8898 13.7342 20.1201C13.775 20.1498 13.8419 20.1907 13.879 20.213C13.9905 20.2799 14.0536 20.3319 14.1391 20.4322C14.3137 20.6402 14.362 20.7851 14.4251 21.1083C14.5254 21.621 14.4771 22.3677 14.4771 22.9769V32.528C14.4771 32.8624 14.466 33.1558 14.5849 33.3787C14.6852 33.5645 14.8969 33.7577 15.1644 33.7577H17.1482C17.1482 33.5868 17.1482 33.5756 17.0293 33.5162C16.9364 33.4679 16.8696 33.4493 16.773 33.3825C16.6355 33.2896 16.4981 33.1224 16.4238 32.9812C16.1191 32.4017 16.186 31.7033 16.1823 30.9677C16.1823 30.8489 16.1823 30.7374 16.1897 30.626L16.1823 28.7462C16.6541 28.9951 16.7953 29.062 17.3228 29.1957C17.854 29.3295 18.5153 29.3778 19.0465 29.2997C19.496 29.2329 19.574 29.2329 20.0458 29.0954C21.0192 28.8131 21.7919 28.189 22.3454 27.368C22.9323 26.4987 23.2704 25.3099 23.2704 24.266C23.2704 23.2221 23.2778 22.78 22.9584 21.8141C22.6352 20.8408 21.9999 19.9492 21.0786 19.4886C19.7301 18.8162 18.2032 18.9202 17.033 19.9195C16.9662 19.9752 16.9401 20.0087 16.8733 20.0607L16.1526 20.8408L16.16 20.8445Z" fill="#9A8141"/>
<path fill-rule="evenodd" clip-rule="evenodd" d="M28.9542 28.7759C27.9029 28.7759 27.1599 28.3338 26.7773 27.379C26.6658 27.1041 26.5804 26.8032 26.5804 26.4355V21.5986C26.5804 21.2085 27.1748 20.8259 27.4794 20.6662C29.4446 19.652 31.2129 20.7293 31.7219 22.884C31.9596 23.8833 31.9188 25.1427 31.707 26.1271C31.421 27.4645 30.5814 28.7796 28.9505 28.7796M26.5804 20.8445C26.5804 20.499 26.6175 20.0383 26.5247 19.7894C26.2238 18.9907 25.3322 19.4179 24.6783 19.6668C24.5929 19.7003 24.5372 19.7114 24.4517 19.7411C24.2808 19.8006 23.8573 19.8972 24.1471 20.1238C24.5483 20.4358 24.6895 20.4135 24.8344 21.1194C24.9421 21.6506 24.8975 22.3602 24.8975 22.9806V32.5614C24.8975 32.9812 24.8529 33.7613 25.6182 33.7613H27.5723C27.5723 33.4567 27.4385 33.583 27.1451 33.3452C26.6101 32.9069 26.6101 32.2419 26.6101 31.6289C26.6101 31.016 26.5804 30.8042 26.5804 30.2767V28.7461C26.6956 28.7722 26.7513 28.8204 26.8441 28.8687C27.4831 29.2068 28.4304 29.3963 29.1363 29.3182C29.27 29.3034 29.4 29.3071 29.5003 29.2922C30.4179 29.1659 31.0978 28.943 31.8333 28.3821C32.1565 28.1369 32.58 27.6614 32.7955 27.301C33.2524 26.532 33.5422 25.8448 33.6313 24.8938C33.7316 23.8499 33.7502 22.9397 33.4047 21.9107C33.2153 21.346 33.0295 20.9485 32.6729 20.4804C32.0971 19.73 31.0829 19.0687 29.7604 19.0687C29.2811 19.0687 28.9579 19.0984 28.5233 19.273C27.8286 19.5554 27.4051 19.9083 26.9222 20.4358L26.8479 20.5138C26.7698 20.5993 26.651 20.7813 26.573 20.8408" fill="#9A8141"/>
<path fill-rule="evenodd" clip-rule="evenodd" d="M55.2337 22.4087C55.2449 22.5387 56.1513 24.6117 56.3037 24.9757C56.3817 25.1615 56.4374 25.2989 56.5154 25.4884C56.586 25.6667 56.6677 25.8227 56.7346 25.9899C56.8126 26.1756 56.8758 26.3354 56.9538 26.5211L58.0311 29.077C58.1203 29.2776 58.2168 29.3779 58.462 29.3259C58.6106 29.2962 58.6143 29.1365 58.7147 28.8615C59.0304 28.0183 59.3462 26.9669 59.662 26.1459L60.0409 25.0834C60.3158 24.2402 60.691 23.2631 60.9919 22.3975L61.3931 21.3276C61.486 21.0936 61.9652 19.8602 61.9652 19.7042C61.9652 19.4627 61.7906 19.2844 61.5454 19.2844H59.9517C59.9517 19.5222 59.9592 19.4553 60.156 19.6522C60.8396 20.3395 60.4272 21.9035 60.1969 22.6502L58.8707 27.0932C58.8335 26.9298 58.7481 26.7515 58.6812 26.5917L56.8535 22.0521C56.6863 21.6397 56.0362 19.7339 55.8467 19.5185C55.7501 19.4107 55.5532 19.2881 55.3563 19.2881H53.4357C53.4357 19.6151 53.5917 19.5556 53.9038 19.9011C54.1899 20.2132 54.4239 20.5141 54.5948 20.9227C54.84 21.5171 54.9886 21.4019 54.6468 22.2712C54.4016 22.8916 54.1564 23.7052 53.9187 24.3033C53.8332 24.5188 53.7589 24.7528 53.6809 24.9683C53.5992 25.1949 52.9714 26.8703 52.9565 27.0375H52.8971C52.8859 26.9112 51.9014 24.2624 51.8049 23.9838L51.4445 22.9622C51.3776 22.7839 51.3293 22.6316 51.2588 22.457L50.3486 19.9122C50.226 19.5668 50.0403 19.2844 49.5945 19.2844H47.6404C47.6404 19.4739 47.6701 19.4925 47.841 19.6262C48.4168 20.0906 48.5989 20.4138 48.8886 21.1047L50.6272 25.4958C50.9281 26.2425 51.1919 26.9781 51.4928 27.7211L51.92 28.8244C51.9757 28.9804 52.0575 29.2665 52.1875 29.3073C52.533 29.4151 52.5738 29.2182 52.6333 29.0473C52.6964 28.8653 52.7745 28.6944 52.845 28.5049L55.1112 22.665C55.1483 22.561 55.1669 22.4607 55.2412 22.405" fill="#9A8141"/>
<path fill-rule="evenodd" clip-rule="evenodd" d="M6.88005 18.6824C6.92835 18.8942 7.47073 20.1461 7.60447 20.5102C7.64533 20.6254 7.68991 20.7591 7.74192 20.8817L8.31773 22.3491C8.41804 22.6017 8.50348 22.8283 8.60378 23.0809L9.19075 24.5669H4.47648L6.56057 19.4143C6.62001 19.2768 6.78718 18.7828 6.87634 18.6824M1.65313 28.8651C1.65313 29.0174 1.73486 29.1066 1.83145 29.1066H3.69263C3.69263 28.6273 3.2134 28.9245 3.2134 28.0552C3.2134 27.8026 3.32485 27.446 3.39915 27.2491C3.48831 27.0151 3.57747 26.7736 3.67034 26.5284L3.95639 25.8263C4.0567 25.5848 4.14957 25.3322 4.26473 25.113H9.39878L10.7696 28.4305C10.9331 28.8205 11.1485 29.1103 11.6835 29.1103H13.6041C13.6041 28.6756 12.9466 28.7388 12.341 27.5203C11.9472 26.7253 11.8135 26.3055 11.4791 25.5291L10.4613 23.0921C9.826 21.4872 9.08301 19.8341 8.44404 18.2329L7.9351 17.0293C7.69362 16.5464 7.11781 16.5278 6.83547 16.851C6.64973 17.0627 5.29006 20.3207 5.08574 20.8074L3.70749 24.0245C3.56261 24.37 1.64941 28.7462 1.64941 28.8725" fill="#9A8141"/>
<path fill-rule="evenodd" clip-rule="evenodd" d="M40.9387 26.5841C40.9387 26.1717 41.0464 25.8263 41.1876 25.5439L41.4402 25.165C42.146 24.4406 43.1862 24.1805 44.2784 24.2957C44.4233 24.3106 44.6276 24.3291 44.7539 24.3291V27.1822C44.7539 27.3122 44.6833 27.3605 44.6127 27.4311C44.4084 27.628 44.3304 27.7803 43.9552 28.0032C43.1565 28.475 42.1237 28.5865 41.4142 27.8806C41.1244 27.5909 40.9424 27.1488 40.9424 26.5804M39.5567 21.2346C39.5567 21.7547 39.8465 22.193 40.244 22.3193C40.8272 22.5051 41.2693 22.0556 41.2693 21.6841C41.2693 21.19 40.8792 21.2755 40.8792 20.6922C40.8792 20.5473 40.9647 20.3579 41.0241 20.265C41.4513 19.5814 43.7732 18.9499 44.5161 20.603C44.6313 20.8631 44.7279 21.1863 44.7279 21.5652C44.7279 22.0147 44.7576 22.1968 44.7576 22.6463V23.8165C43.3014 23.4784 40.7046 23.7793 39.7536 25.0015C39.6904 25.0833 39.6087 25.1836 39.5641 25.2616C39.1146 25.9971 39.0106 26.8553 39.3041 27.7134C39.3524 27.8583 39.423 27.9995 39.4973 28.1221C39.5381 28.1852 39.5716 28.241 39.6161 28.3041L39.7239 28.4379C39.7462 28.4639 39.7424 28.4639 39.7647 28.4862C40.6712 29.4706 42.3801 29.504 43.4462 28.9691C43.5986 28.8911 43.6951 28.8428 43.8363 28.7573C44.323 28.4676 44.7576 27.9141 44.8171 27.8769C44.8393 28.1444 45.0697 28.6199 45.274 28.8316C45.7792 29.348 46.708 29.3146 47.3098 29.0211C47.5587 28.8985 47.9079 28.6868 47.9079 28.4193C47.9079 28.3301 47.8782 28.3413 47.7742 28.3338C47.3878 28.3115 46.89 28.3896 46.6337 28.0106C46.4368 27.7209 46.4368 26.9333 46.4368 26.4355C46.4368 25.5439 46.4999 21.9776 46.355 21.2606C46.1619 20.2947 45.5935 19.7003 44.7205 19.3511C43.2493 18.7604 40.3034 19.0428 39.683 20.6736C39.6347 20.7962 39.5604 21.0823 39.5604 21.242" fill="#9A8141"/>
<path fill-rule="evenodd" clip-rule="evenodd" d="M25.2913 12.2258C25.2913 12.5787 25.3396 12.9168 25.3953 13.2326C25.6517 14.7483 25.5402 14.3285 25.1167 15.7736C24.9755 16.2491 24.8492 16.9475 25.5959 17.0292C25.9266 17.0627 26.1309 17.0255 26.3947 16.9029C27.1451 16.5537 28.0998 15.2721 28.7574 14.8226C29.2626 14.4771 29.5152 14.3025 30.2136 14.3396C30.3028 14.347 30.4662 14.3285 30.6371 14.3285C31.4767 14.3285 31.7553 14.3359 32.2828 13.9941C32.6246 13.7749 33.1001 13.24 33.1001 12.7979C33.1001 11.8469 31.9782 11.4865 31.1572 11.0742C29.6564 10.3238 29.3295 9.57334 27.5463 10.216C27.3643 10.2829 27.2305 10.3275 27.0522 10.4129C26.7476 10.5541 26.6473 10.5912 26.3538 10.7658L25.8486 11.1633C25.5699 11.4197 25.2913 11.8283 25.2913 12.2258Z" fill="#9A8141"/>
<path fill-rule="evenodd" clip-rule="evenodd" d="M63.1652 21.6283V21.9293C63.1652 22.8357 63.8264 23.523 64.4431 23.9242C65.8362 24.8306 68.5704 25.2727 68.5704 27.067C68.5704 27.3494 68.485 27.6577 68.3921 27.8472C67.6454 29.3777 64.3354 28.7276 64.3354 28.0255C64.3354 27.8212 64.3725 27.7543 64.4654 27.5871C64.64 27.2751 64.6177 26.8627 64.3614 26.6175C63.9602 26.2312 63.1206 26.4392 63.0129 27.3085C62.9831 27.5351 63.024 27.7803 63.1206 27.9772C63.5552 28.8576 65.1081 29.2886 66.0145 29.2886C67.1847 29.2886 67.9054 29.2217 68.8676 28.5381C69.0125 28.4341 69.1202 28.3004 69.2502 28.1704C69.6217 27.8026 69.9784 27.1005 69.9784 26.5581C69.9784 25.6071 69.8298 25.0238 69.1425 24.4183C67.638 23.0883 64.6289 22.8766 64.6289 21.0637C64.6289 20.5919 64.874 20.1721 65.1527 19.9641C66.1223 19.2359 68.2955 19.5368 68.2955 20.5844C68.2955 20.8148 67.6825 21.2011 68.1952 21.7361C68.4998 22.0519 69.0311 22.0779 69.3245 21.6766C69.8038 21.0228 69.4546 20.1052 68.7264 19.6111C67.7717 18.9647 66.1706 18.9536 65.1415 19.2991C64.7626 19.4254 64.4914 19.574 64.1831 19.782C63.5961 20.1795 63.1577 20.8891 63.1577 21.6395" fill="#9A8141"/>
<path fill-rule="evenodd" clip-rule="evenodd" d="M34.6604 15.5283C34.6604 15.6546 34.7979 15.6918 34.887 15.7512C34.9985 15.8218 35.0616 15.8812 35.1359 15.9815C35.6449 16.6688 35.5 17.4229 35.5 18.4408V27.9028C35.5 28.2446 35.474 28.4935 35.6077 28.7275C35.7118 28.9133 35.9235 29.1027 36.191 29.1027H37.9927C37.9927 28.7609 37.8924 28.9653 37.5952 28.6309C37.194 28.1777 37.2163 27.3567 37.2014 26.7734C37.1606 24.9457 37.2237 22.8876 37.2014 21.0339C37.1792 19.4141 37.2014 17.9728 37.2014 16.3939C37.2014 15.9407 37.2832 15.402 37.0157 15.1011C36.9451 15.0231 36.8931 14.9711 36.8002 14.9265C36.3767 14.7296 36.0944 14.9265 35.5186 15.1197L34.8202 15.3537C34.7422 15.3797 34.6641 15.4206 34.6641 15.5283" fill="#9A8141"/>
<path fill-rule="evenodd" clip-rule="evenodd" d="M21.086 5.82877C21.086 6.47888 21.1083 6.86524 21.3869 7.48192C21.4649 7.65652 21.5355 7.80883 21.6395 7.97972C21.8922 8.40322 21.985 8.4478 22.2339 8.70785C22.2599 8.73757 22.2488 8.72642 22.2785 8.75614C23.4487 9.94121 25.1427 9.77403 25.1427 8.38465C25.1427 7.46334 24.1991 5.99594 23.575 5.35697C23.2741 5.04863 22.6834 4.59912 22.2302 4.59912C21.8624 4.59912 21.5652 4.65113 21.3461 4.97804C21.2123 5.17494 21.0897 5.51671 21.0897 5.83248" fill="#9A8141"/>
<path fill-rule="evenodd" clip-rule="evenodd" d="M25.5922 4.05669C25.5922 4.50992 25.6554 4.79968 25.7928 5.20461C26.1198 6.17421 26.3389 7.17724 27.1934 7.82736C28.0812 8.49976 29.4632 7.97596 29.4632 7.02865C29.4632 6.02561 28.9877 5.17118 28.475 4.53221C28.1741 4.15328 28.0069 4.02697 27.6392 3.74835C27.3977 3.56632 26.9148 3.34342 26.4875 3.30627H26.2684C26.0863 3.32485 25.9229 3.388 25.8077 3.52546C25.7148 3.6369 25.5885 3.87095 25.5885 4.05669" fill="#9A8141"/>
<path fill-rule="evenodd" clip-rule="evenodd" d="M22.6463 14.5069C22.7837 14.5069 23.0066 14.4363 23.0995 14.388C23.9836 13.9348 23.9205 12.902 23.4301 12.1627L22.0222 10.5988C21.5578 10.2235 20.9077 9.76661 20.4322 10.4316C20.2724 10.6545 20.2538 10.8291 20.2278 11.1857C20.1981 11.6389 20.4359 12.3113 20.5956 12.7163C20.9522 13.6079 21.4946 14.5106 22.6463 14.5106" fill="#9A8141"/>
<path fill-rule="evenodd" clip-rule="evenodd" d="M31.0272 6.30789C31.0272 7.39637 31.0458 8.92321 32.06 9.53989C32.5429 9.83338 33.0296 9.5919 33.3045 9.18698C33.4048 9.03838 33.4494 8.94179 33.5199 8.7709C33.8208 8.03906 33.5905 7.0063 33.0964 6.34133C32.268 5.23428 31.0272 5.36058 31.0272 6.30789Z" fill="#9A8141"/>
</svg>
