<svg width="51" height="51" viewBox="0 0 51 51" fill="none" xmlns="http://www.w3.org/2000/svg">
<path d="M48.4275 43.7633H41.3913V34.3817H46.855C47.7079 34.3817 48.4275 33.6887 48.4275 32.8092V29.6908C48.4275 28.838 47.7345 28.1183 46.855 28.1183H38.2729V6.26333H44.5362V15.7516C42.8571 16.178 41.871 17.8838 42.2974 19.5629C42.7239 21.242 44.4296 22.2281 46.1087 21.8017C47.7878 21.3753 48.774 19.6695 48.3475 17.9904C48.0544 16.8977 47.2015 16.0181 46.1087 15.7516V6.26333H46.8817C47.7345 6.26333 48.4542 5.57036 48.4542 4.69083V1.57249C48.4542 0.719616 47.7612 0 46.8817 0H28.1183C27.2655 0 26.5458 0.692964 26.5458 1.57249V4.69083C26.5458 5.54371 27.2388 6.26333 28.1183 6.26333H30.4638V28.145H28.1183C27.2655 28.145 26.5458 28.838 26.5458 29.7175V32.8358C26.5458 33.6887 27.2388 34.4083 28.1183 34.4083H33.5821V43.79H16.3913V37.5267H21.0821C21.5085 37.5267 21.855 37.1802 21.855 36.7537V19.5629C21.855 19.1365 21.5085 18.79 21.0821 18.79H16.3913V9.40832H21.855C22.7079 9.40832 23.4275 8.71535 23.4275 7.83582V4.71748C23.4275 3.86461 22.7345 3.14499 21.855 3.14499H3.11834C2.26546 3.14499 1.54584 3.83795 1.54584 4.71748V7.83582C1.54584 8.6887 2.23881 9.40832 3.11834 9.40832H8.58209V18.79H3.89126C3.46482 18.79 3.11834 19.1365 3.11834 19.5629V36.7537C3.11834 37.1802 3.46482 37.5267 3.89126 37.5267H8.58209V43.79H1.57249C0.719616 43.79 0 44.4829 0 45.3625V48.4808C0 49.3337 0.692964 50.0533 1.57249 50.0533H48.4542C49.307 50.0533 50.0267 49.3603 50.0267 48.4808V45.3625C50.0267 44.5096 49.3337 43.79 48.4542 43.79L48.4275 43.7633ZM46.8817 18.7633C46.8817 19.6162 46.1887 20.3358 45.3092 20.3358C44.4296 20.3358 43.7367 19.6429 43.7367 18.7633C43.7367 17.8838 44.4296 17.1908 45.3092 17.1908C46.1887 17.1908 46.8817 17.8838 46.8817 18.7633ZM28.1183 1.57249H46.8817V4.69083H28.1183V1.57249ZM32.0363 6.26333H36.7271V28.145H32.0363V6.26333ZM28.1183 29.6908H46.8817V32.8092H28.1183V29.6908ZM35.1546 34.3817H39.8454V43.7633H35.1546V34.3817ZM3.11834 4.69083H21.8817V7.80917H3.11834V4.69083ZM10.1546 9.38166H14.8454V18.7633H10.1546V9.38166ZM4.69083 20.3092H20.3092V35.9275H4.69083V20.3092ZM10.1546 37.5H14.8454V43.7633H10.1546V37.5ZM48.4275 48.4275H1.57249V45.3092H48.4542V48.4275H48.4275Z" fill="black"/>
<path d="M17.1908 28.1183C17.1908 25.533 15.0853 23.4275 12.5 23.4275C9.91469 23.4275 7.80914 25.533 7.80914 28.1183C7.80914 30.7036 9.91469 32.8092 12.5 32.8092C15.0853 32.8092 17.1908 30.7036 17.1908 28.1183ZM9.38164 28.1183C9.38164 26.3859 10.7676 25 12.5 25C14.2324 25 15.6183 26.3859 15.6183 28.1183C15.6183 29.8507 14.2324 31.2367 12.5 31.2367C10.7676 31.2367 9.38164 29.8507 9.38164 28.1183Z" fill="black"/>
</svg>
