<svg width="49" height="28" viewBox="0 0 49 28" fill="none" xmlns="http://www.w3.org/2000/svg">
<path d="M17.9692 24.8935C17.9692 24.7338 17.8986 24.6372 17.7574 24.6372C17.6385 24.6372 17.5308 24.7264 17.5085 24.8935H17.9692ZM17.2782 24.9901C17.2782 24.6558 17.5122 24.4478 17.7537 24.4478C18.0323 24.4478 18.1809 24.6484 18.1809 24.9381C18.1809 24.9827 18.1772 25.031 18.1698 25.057H17.516C17.5345 25.239 17.6534 25.3431 17.8206 25.3431C17.9097 25.3431 17.984 25.3133 18.062 25.2688L18.1438 25.4211C18.0472 25.4879 17.9209 25.5325 17.7909 25.5325C17.5048 25.5325 17.2819 25.3319 17.2819 24.9901" fill="#48B9B2"/>
<path d="M18.2812 24.4738H18.5264L18.6899 25.0087C18.7196 25.109 18.7493 25.2167 18.779 25.3208H18.7865C18.8162 25.2167 18.8459 25.1127 18.8719 25.0087L19.0354 24.4738H19.2694L18.9202 25.5065H18.6416L18.2812 24.4738Z" fill="#48B9B2"/>
<path d="M20.0644 24.8935C20.0644 24.7338 19.9938 24.6372 19.8526 24.6372C19.7338 24.6372 19.626 24.7264 19.6037 24.8935H20.0644ZM19.3734 24.9901C19.3734 24.6558 19.6075 24.4478 19.8489 24.4478C20.1275 24.4478 20.2761 24.6484 20.2761 24.9381C20.2761 24.9827 20.2724 25.031 20.265 25.057H19.6075C19.626 25.239 19.7449 25.3431 19.9121 25.3431C20.0012 25.3431 20.0755 25.3133 20.1536 25.2688L20.2353 25.4211C20.1387 25.4879 20.0124 25.5325 19.8824 25.5325C19.5963 25.5325 19.3734 25.3319 19.3734 24.9901Z" fill="#48B9B2"/>
<path d="M20.5065 24.4737H20.7034L20.7219 24.6595H20.7294C20.8037 24.5257 20.9114 24.4514 21.0228 24.4514C21.0749 24.4514 21.1083 24.4588 21.1417 24.4737L21.1009 24.6855C21.0637 24.6743 21.0377 24.6669 20.9931 24.6669C20.9114 24.6669 20.8111 24.7226 20.7479 24.8824V25.5139H20.5065V24.4811V24.4737Z" fill="#48B9B2"/>
<path d="M21.2569 25.9114L21.3015 25.7256C21.3201 25.7331 21.3498 25.7405 21.3758 25.7405C21.4835 25.7405 21.5467 25.6662 21.5838 25.5622L21.6024 25.499L21.1975 24.4774H21.4427L21.621 24.9826C21.6507 25.0755 21.6804 25.1758 21.7101 25.2761H21.7176C21.7436 25.1795 21.7696 25.0792 21.7956 24.9826L21.9516 24.4774H22.1857L21.8104 25.5585C21.725 25.7925 21.6173 25.9337 21.3907 25.9337C21.3349 25.9337 21.2941 25.9262 21.2569 25.9114Z" fill="#48B9B2"/>
<path d="M22.4011 25.1611V24.6707H22.2525V24.4887L22.4122 24.4775L22.442 24.1952H22.6426V24.4775H22.9063V24.6707H22.6426V25.1611C22.6426 25.2837 22.6909 25.3431 22.7875 25.3431C22.8246 25.3431 22.8655 25.332 22.8952 25.3208L22.9361 25.4991C22.8803 25.5177 22.806 25.5363 22.7243 25.5363C22.4865 25.5363 22.3974 25.384 22.3974 25.1611" fill="#48B9B2"/>
<path d="M23.1218 24.0205H23.3633V24.4069L23.3521 24.6075C23.4376 24.5257 23.5416 24.4514 23.6828 24.4514C23.9056 24.4514 24.0022 24.6 24.0022 24.8638V25.5102H23.7608V24.8935C23.7608 24.7226 23.7125 24.6595 23.601 24.6595C23.5119 24.6595 23.4487 24.7041 23.367 24.7895V25.5102H23.1255V24.0242L23.1218 24.0205Z" fill="#48B9B2"/>
<path d="M24.2957 24.4737H24.5372V25.5065H24.2957V24.4737ZM24.2697 24.158C24.2697 24.0762 24.3329 24.0205 24.4183 24.0205C24.5038 24.0205 24.5669 24.0762 24.5669 24.158C24.5669 24.2397 24.5038 24.2954 24.4183 24.2954C24.3329 24.2954 24.2697 24.2397 24.2697 24.158Z" fill="#48B9B2"/>
<path d="M24.8492 24.4737H25.0461L25.0647 24.6149H25.0721C25.165 24.5257 25.269 24.4514 25.4102 24.4514C25.6331 24.4514 25.7297 24.6 25.7297 24.8638V25.5102H25.4882V24.8935C25.4882 24.7226 25.4399 24.6595 25.3285 24.6595C25.2393 24.6595 25.1762 24.704 25.0907 24.7895V25.5102H24.8492V24.4774V24.4737Z" fill="#48B9B2"/>
<path d="M26.5767 24.8191C26.5767 24.6891 26.4987 24.6148 26.3984 24.6148C26.2981 24.6148 26.22 24.6891 26.22 24.8191C26.22 24.9492 26.3018 25.0272 26.3984 25.0272C26.4949 25.0272 26.5767 24.9492 26.5767 24.8191ZM26.703 25.6401C26.703 25.5584 26.6398 25.5361 26.521 25.5361H26.3798C26.3241 25.5361 26.2795 25.5324 26.2386 25.5213C26.1829 25.5621 26.1606 25.6104 26.1606 25.6587C26.1606 25.7516 26.2609 25.8073 26.4244 25.8073C26.5878 25.8073 26.703 25.7293 26.703 25.6401ZM25.9563 25.6959C25.9563 25.6104 26.0083 25.5324 26.1049 25.4767V25.4693C26.0529 25.4358 26.012 25.3801 26.012 25.2984C26.012 25.2166 26.0677 25.1461 26.1272 25.1052V25.0978C26.0566 25.0458 25.9897 24.9455 25.9897 24.8266C25.9897 24.5888 26.1829 24.4551 26.3984 24.4551C26.4541 24.4551 26.5098 24.4662 26.5507 24.4811H26.9185V24.6631H26.729C26.7624 24.7003 26.7884 24.7671 26.7884 24.8377C26.7884 25.068 26.6138 25.1906 26.3946 25.1906C26.3501 25.1906 26.3018 25.1832 26.2535 25.1646C26.2238 25.1906 26.2015 25.2166 26.2015 25.2649C26.2015 25.3244 26.2423 25.3578 26.3686 25.3578H26.5507C26.7996 25.3578 26.9296 25.4358 26.9296 25.6141C26.9296 25.8185 26.7141 25.9782 26.3798 25.9782C26.1346 25.9782 25.9489 25.889 25.9489 25.707" fill="#48B9B2"/>
<path d="M27.472 25.9114L27.5166 25.7256C27.5352 25.7331 27.5649 25.7405 27.5909 25.7405C27.6986 25.7405 27.7618 25.6662 27.7952 25.5622L27.8138 25.499L27.4088 24.4774H27.654L27.8323 24.9826C27.8621 25.0755 27.8918 25.1758 27.9215 25.2761H27.9289C27.9549 25.1795 27.9809 25.0792 28.0069 24.9826L28.163 24.4774H28.397L28.0218 25.5585C27.9364 25.7925 27.8286 25.9337 27.602 25.9337C27.5463 25.9337 27.5054 25.9262 27.4683 25.9114" fill="#48B9B2"/>
<path d="M29.2329 24.9901C29.2329 24.7821 29.1437 24.6446 28.9914 24.6446C28.8391 24.6446 28.7499 24.7821 28.7499 24.9901C28.7499 25.1982 28.8391 25.3319 28.9914 25.3319C29.1437 25.3319 29.2329 25.1945 29.2329 24.9901ZM28.501 24.9901C28.501 24.6446 28.735 24.4478 28.9914 24.4478C29.2477 24.4478 29.4818 24.6446 29.4818 24.9901C29.4818 25.3356 29.2477 25.5325 28.9914 25.5325C28.735 25.5325 28.501 25.3356 28.501 24.9901Z" fill="#48B9B2"/>
<path d="M29.7084 25.1238V24.4774H29.9498V25.0941C29.9498 25.265 29.9981 25.3281 30.1096 25.3281C30.1987 25.3281 30.2619 25.2873 30.3399 25.1833V24.4774H30.5814V25.5102H30.3845L30.3659 25.3579H30.3585C30.2693 25.4656 30.169 25.5362 30.0279 25.5362C29.805 25.5362 29.7084 25.3876 29.7084 25.1238Z" fill="#48B9B2"/>
<path d="M30.8897 24.4737H31.0866L31.1052 24.6595H31.1126C31.1869 24.5257 31.2947 24.4514 31.4061 24.4514C31.4581 24.4514 31.4916 24.4588 31.525 24.4737L31.4841 24.6855C31.447 24.6743 31.421 24.6669 31.3764 24.6669C31.2947 24.6669 31.1944 24.7226 31.1312 24.8824V25.5139H30.8897V24.4811V24.4737Z" fill="#48B9B2"/>
<path d="M32.7881 24.979C32.7881 24.7747 32.7212 24.6521 32.5652 24.6521C32.4909 24.6521 32.4203 24.6892 32.3386 24.7672V25.2465C32.4129 25.3096 32.4872 25.3319 32.5466 25.3319C32.6841 25.3319 32.7881 25.2093 32.7881 24.9753M32.0971 24.4738H32.294L32.3126 24.5852H32.32C32.4054 24.5109 32.5169 24.4478 32.6321 24.4478C32.8921 24.4478 33.0407 24.6558 33.0407 24.9753C33.0407 25.3282 32.8289 25.5325 32.5986 25.5325C32.5057 25.5325 32.4166 25.4917 32.3311 25.4174L32.3386 25.5882V25.9152H32.0971V24.4738Z" fill="#48B9B2"/>
<path d="M33.9063 24.8935C33.9063 24.7338 33.8357 24.6372 33.6945 24.6372C33.5757 24.6372 33.4679 24.7264 33.4456 24.8935H33.9063ZM33.2153 24.9901C33.2153 24.6558 33.4493 24.4478 33.6908 24.4478C33.9694 24.4478 34.118 24.6484 34.118 24.9381C34.118 24.9827 34.1143 25.031 34.1069 25.057H33.4531C33.4716 25.239 33.5905 25.3431 33.7577 25.3431C33.8468 25.3431 33.9211 25.3133 33.9992 25.2688L34.0809 25.4211C33.9843 25.4879 33.858 25.5325 33.728 25.5325C33.4419 25.5325 33.219 25.3319 33.219 24.9901" fill="#48B9B2"/>
<path d="M34.3632 25.1611V24.6707H34.2146V24.4887L34.3743 24.4775L34.4041 24.1952H34.6047V24.4775H34.8684V24.6707H34.6047V25.1611C34.6047 25.2837 34.653 25.3431 34.7496 25.3431C34.7867 25.3431 34.8276 25.332 34.8573 25.3208L34.8982 25.4991C34.8424 25.5177 34.7681 25.5363 34.6864 25.5363C34.4486 25.5363 34.3595 25.384 34.3595 25.1611" fill="#48B9B2"/>
<path d="M36.1427 25.2167V24.7338C36.0721 24.6706 36.0015 24.6483 35.9309 24.6483C35.8009 24.6483 35.6895 24.7746 35.6895 24.9901C35.6895 25.2056 35.7749 25.3319 35.9235 25.3319C36.0015 25.3319 36.0721 25.2947 36.139 25.2167M35.4443 24.9901C35.4443 24.652 35.656 24.4477 35.8826 24.4477C36.0015 24.4477 36.0721 24.4923 36.1538 24.5629L36.1464 24.3957V24.0205H36.3879V25.5065H36.191L36.1724 25.395H36.165C36.087 25.4731 35.9829 25.5325 35.8715 25.5325C35.6152 25.5325 35.448 25.3319 35.448 24.9901" fill="#48B9B2"/>
<path d="M37.3166 24.8935C37.3166 24.7338 37.246 24.6372 37.1048 24.6372C36.986 24.6372 36.8782 24.7264 36.8559 24.8935H37.3166ZM36.6256 24.9901C36.6256 24.6558 36.8597 24.4478 37.1011 24.4478C37.3797 24.4478 37.5283 24.6484 37.5283 24.9381C37.5283 24.9827 37.5246 25.031 37.5172 25.057H36.8634C36.8819 25.239 37.0008 25.3431 37.168 25.3431C37.2572 25.3431 37.3314 25.3133 37.4095 25.2688L37.4912 25.4211C37.3946 25.4879 37.2683 25.5325 37.1383 25.5325C36.8522 25.5325 36.6293 25.3319 36.6293 24.9901" fill="#48B9B2"/>
<path d="M37.6546 25.3876L37.7661 25.2353C37.859 25.3059 37.9481 25.3504 38.0521 25.3504C38.1636 25.3504 38.2193 25.2984 38.2193 25.2278C38.2193 25.1424 38.1079 25.1015 37.9964 25.0607C37.8627 25.0087 37.7066 24.9306 37.7066 24.7598C37.7066 24.5889 37.8515 24.4514 38.0818 24.4514C38.2267 24.4514 38.3419 24.5109 38.4236 24.574L38.3122 24.7226C38.2416 24.6706 38.1673 24.6335 38.0856 24.6335C37.9815 24.6335 37.9333 24.6817 37.9333 24.7486C37.9333 24.8303 38.0373 24.8601 38.1487 24.9009C38.2899 24.9529 38.4459 25.0198 38.4459 25.213C38.4459 25.3913 38.3047 25.5325 38.0447 25.5325C37.9035 25.5325 37.7549 25.473 37.6546 25.3876Z" fill="#48B9B2"/>
<path d="M39.2892 24.8935C39.2892 24.7338 39.2187 24.6372 39.0775 24.6372C38.9549 24.6372 38.8509 24.7264 38.8286 24.8935H39.2892ZM38.5983 24.9901C38.5983 24.6558 38.8323 24.4478 39.0738 24.4478C39.3524 24.4478 39.501 24.6484 39.501 24.9381C39.501 24.9827 39.4973 25.031 39.4899 25.057H38.836C38.8546 25.239 38.9735 25.3431 39.1407 25.3431C39.2298 25.3431 39.3041 25.3133 39.3821 25.2688L39.4638 25.4211C39.3673 25.4879 39.241 25.5325 39.1109 25.5325C38.8249 25.5325 38.602 25.3319 38.602 24.9901" fill="#48B9B2"/>
<path d="M39.7313 24.4737H39.9282L39.9468 24.6595H39.9542C40.0285 24.5257 40.1362 24.4514 40.2477 24.4514C40.2997 24.4514 40.3331 24.4588 40.3666 24.4737L40.3257 24.6855C40.2885 24.6743 40.2625 24.6669 40.2179 24.6669C40.1362 24.6669 40.0359 24.7226 39.9728 24.8824V25.5139H39.7313V24.4811V24.4737Z" fill="#48B9B2"/>
<path d="M40.4186 24.4738H40.6638L40.8272 25.0087C40.8569 25.109 40.8867 25.2167 40.9164 25.3208H40.9238C40.9535 25.2167 40.9832 25.1127 41.013 25.0087L41.1764 24.4738H41.4105L41.0613 25.5065H40.7826L40.4223 24.4738H40.4186Z" fill="#48B9B2"/>
<path d="M42.2017 24.8935C42.2017 24.7338 42.1311 24.6372 41.99 24.6372C41.8711 24.6372 41.7634 24.7264 41.7411 24.8935H42.2017ZM41.507 24.9901C41.507 24.6558 41.7411 24.4478 41.9825 24.4478C42.2612 24.4478 42.4098 24.6484 42.4098 24.9381C42.4098 24.9827 42.406 25.031 42.3986 25.057H41.7448C41.7633 25.239 41.8822 25.3431 42.0494 25.3431C42.1386 25.3431 42.2129 25.3133 42.2909 25.2688L42.3726 25.4211C42.276 25.4879 42.1497 25.5325 42.0197 25.5325C41.7336 25.5325 41.5107 25.3319 41.5107 24.9901" fill="#48B9B2"/>
<path d="M42.5398 25.3876L42.6512 25.2353C42.7441 25.3059 42.8333 25.3504 42.9373 25.3504C43.0487 25.3504 43.1045 25.2984 43.1045 25.2278C43.1045 25.1424 42.993 25.1015 42.8816 25.0607C42.7478 25.0087 42.5918 24.9306 42.5918 24.7598C42.5918 24.5889 42.7367 24.4514 42.967 24.4514C43.1119 24.4514 43.2271 24.5109 43.3088 24.574L43.1973 24.7226C43.1268 24.6706 43.0525 24.6335 42.9707 24.6335C42.8667 24.6335 42.8184 24.6817 42.8184 24.7486C42.8184 24.8303 42.9224 24.8601 43.0339 24.9009C43.1751 24.9529 43.3311 25.0198 43.3311 25.213C43.3311 25.3913 43.1899 25.5325 42.9299 25.5325C42.7887 25.5325 42.6401 25.473 42.5398 25.3876Z" fill="#48B9B2"/>
<path d="M43.6134 24.3364L43.606 24.0986H43.8512L43.8438 24.3364L43.8103 25.0534H43.6506L43.6171 24.3364H43.6134ZM43.5688 25.3691C43.5688 25.2726 43.6357 25.2057 43.7249 25.2057C43.814 25.2057 43.8809 25.2763 43.8809 25.3691C43.8809 25.462 43.814 25.5326 43.7249 25.5326C43.6357 25.5326 43.5688 25.462 43.5688 25.3691Z" fill="#48B9B2"/>
<path d="M26.7959 7.97201V0.549561H21.9293V7.97201H26.7959ZM24.0208 4.55055V5.69847C24.0208 5.86564 23.8537 5.91765 23.7645 5.92136C23.5713 5.92136 23.4339 5.78763 23.4339 5.6056V3.65897C23.4004 3.72583 23.3001 3.7927 23.1998 3.81128C23.133 3.82242 22.9769 3.80013 22.9769 3.65897C22.9769 3.57352 23.0401 3.50294 23.1255 3.48065C23.2593 3.44722 23.3596 3.3692 23.4079 3.25775C23.4264 3.21689 23.4376 3.16488 23.4376 3.10544C23.4376 2.98656 23.5342 2.88998 23.6531 2.88998C23.8574 2.88998 24.0245 3.05715 24.0245 3.26147V4.00074C24.2066 3.7667 24.5632 3.32462 24.7527 3.072C24.8418 2.95684 24.9347 2.84168 25.0536 2.84168C25.0945 2.84168 25.1279 2.85283 25.1613 2.87883C25.243 2.94198 25.2951 3.04229 25.3025 3.14631C25.3099 3.25033 25.2653 3.35434 25.191 3.42864L24.8047 3.80013C25.0945 3.94873 25.2988 4.24593 25.2988 4.53569C25.2988 4.82546 25.2988 5.95109 25.3099 6.28914C25.3099 6.41174 25.3991 6.6012 25.518 6.6012C25.726 6.6012 25.7 6.48604 25.8226 6.48604C25.986 6.48604 26.0863 6.59749 26.1086 6.67921C26.1346 6.76094 26.1161 6.8501 26.0603 6.91697C25.9935 6.9987 25.9155 7.06185 25.83 7.10272C25.7483 7.13987 25.6591 7.16216 25.57 7.16216C25.4845 7.16216 25.3991 7.14358 25.3099 7.11015C24.9793 6.98384 24.7192 6.64949 24.7192 6.28914C24.7192 5.83221 24.7192 4.96291 24.7192 4.65085C24.7192 4.54312 24.6784 4.43911 24.6041 4.36481C24.5781 4.34252 24.5521 4.32023 24.5224 4.30908C24.4852 4.29422 24.4518 4.28679 24.4146 4.28679C24.3552 4.28679 24.2957 4.30908 24.24 4.34994L24.0245 4.55798L24.0208 4.55055Z" fill="#48B9B2"/>
<path d="M13.1175 24.7858C12.5639 24.7858 12.6865 25.3097 11.7169 25.3097C11.1783 25.3097 10.7696 24.4366 10.7585 23.8608C10.7213 22.2931 10.7065 17.0773 10.7065 15.7585C10.7065 14.4397 9.76287 13.0466 8.41806 12.3631L10.2087 10.6505C10.5616 10.3124 10.751 9.83692 10.725 9.35026C10.699 8.85989 10.465 8.41038 10.0786 8.10947C9.92632 7.99059 9.75915 7.93115 9.57712 7.93115C9.03845 7.93115 8.59638 8.45868 8.19145 8.99734C7.30729 10.1676 5.669 12.2145 4.80342 13.2955L4.822 9.88522C4.822 8.94162 4.053 8.17263 3.10941 8.17263C2.55588 8.17263 2.11009 8.62213 2.11009 9.17194C2.11009 9.44313 2.06551 9.67717 1.98006 9.87407C1.75717 10.3867 1.30766 10.7434 0.683549 10.9068C0.29348 11.0071 0 11.3378 0 11.7278C0 12.3817 0.713269 12.4857 1.02161 12.4374C1.49341 12.3594 1.95406 12.0547 2.11009 11.739V20.7366C2.11009 21.5836 2.74906 22.1965 3.64436 22.1965C4.053 22.1742 4.822 21.9328 4.822 21.1601V15.8551L5.81017 14.893C6.07393 14.7035 6.34141 14.6069 6.6126 14.6069C6.77605 14.6069 6.93951 14.6403 7.10297 14.7072C7.24414 14.7666 7.37416 14.8595 7.48932 14.971C7.84224 15.3127 8.02427 15.792 8.02427 16.2861C8.02427 17.72 8.02427 21.7359 8.02427 23.8534C8.02427 25.5288 9.22049 27.0631 10.7473 27.6538C11.1523 27.8098 11.5535 27.8878 11.9435 27.8878C12.367 27.8878 12.7757 27.7987 13.1509 27.6203C13.5521 27.4309 13.9125 27.1411 14.2171 26.7659C14.466 26.4576 14.5514 26.0489 14.44 25.6737C14.3322 25.2985 13.8642 24.7896 13.1137 24.7896" fill="#48B9B2"/>
<path d="M47.1018 11.1408C46.942 12.3481 46.3625 13.2917 45.5229 14.1016C44.7688 13.0725 43.6617 12.4224 42.4247 12.4224C40.1585 12.4224 38.6354 14.6885 38.6354 17.1701C38.6354 18.0951 38.8472 19.0313 39.2335 19.8412C39.0886 20.3575 38.7766 20.4801 38.3159 20.4801C37.9667 20.4801 37.625 19.6108 37.6175 19.2616C37.6027 18.7564 37.5878 17.9391 37.5952 17.7236V13.2991C37.5952 12.9016 37.5952 12.5079 37.6027 12.1215C37.6287 9.94455 37.9184 9.08269 36.9971 8.34341C36.3582 7.83075 34.0177 7.63758 34.8462 8.99725C35.6932 10.3866 35.6115 12.5896 35.4703 13.0428C34.9762 12.5487 34.0809 12.4224 33.4977 12.4224C31.2464 12.4224 29.6973 14.4954 29.6973 17.1701C29.6973 18.1694 29.8904 19.1205 30.2508 19.9229C29.1995 21.1525 28.6942 19.9563 28.6794 19.7371C28.6608 19.5031 28.6534 19.2208 28.6645 18.9793V13.2991C28.6645 12.8162 28.2707 12.4224 27.7841 12.4224H26.1495C25.96 12.4224 25.8077 12.5747 25.8077 12.7642C25.8077 12.7642 25.8114 12.8534 25.8226 12.9685C25.8263 13.028 25.8449 13.08 25.8746 13.1283C26.0789 13.4812 26.2164 13.8712 26.2164 14.2836V18.1397C23.4859 22.0367 23.2779 19.9117 23.2779 19.5551C23.2779 17.7905 23.2779 14.7963 23.2779 14.7963H25.0796C25.2728 14.7963 25.4325 14.6402 25.4325 14.4433V13.6669C25.4325 13.4403 25.3656 13.2286 25.2579 13.0465C25.0424 12.675 24.645 12.4224 24.1843 12.4224H23.2036V11.646C23.2036 11.1148 20.7591 9.21642 20.7517 11.4417V12.4224H19.4589C19.2657 12.4224 19.106 12.5822 19.106 12.7753V13.6484C19.106 14.2836 19.6223 14.8 20.2576 14.8L20.852 14.7926V18.6041C19.1988 21.7804 18.493 19.6777 18.4781 19.3434C18.4781 19.3211 18.4781 19.2951 18.4781 19.2728C18.4781 19.2393 18.4781 19.1948 18.4781 19.139L18.5227 15.0563C18.5227 14.6068 18.4336 14.2019 18.2553 13.8527C18.1178 13.5778 17.9395 13.3437 17.7166 13.1431C17.4194 12.8756 17.0665 12.6936 16.6318 12.5785C16.5872 12.5673 16.5427 12.5562 16.4795 12.545C15.9186 12.4261 15.287 12.4261 14.674 12.4261C13.5559 12.4261 12.9912 12.6156 12.4265 13.1766C12.3299 13.2731 11.9473 13.7672 11.9621 14.2762C11.9696 14.5214 12.0662 14.7331 12.2445 14.8929C12.4079 15.0377 12.59 15.112 12.7831 15.112C13.1361 15.112 13.4258 14.8706 13.7305 14.6142C14.0462 14.3505 14.2208 13.8378 14.9972 13.8378C15.7737 13.8378 16.0969 14.2502 16.0969 14.7294V15.9405C15.5508 15.8365 15.0381 15.7844 14.5663 15.7844C12.4897 15.7844 11.3455 16.8469 11.3455 18.7713C11.3455 18.8344 11.3492 19.1688 11.3492 19.2691C11.3492 21.0188 13.0135 22.2001 14.6183 22.2001C15.417 22.2001 16.264 21.9773 16.903 20.9594C17.0368 21.6095 17.3451 21.955 17.7612 22.0887C17.9766 22.1593 18.4559 22.1927 18.4559 22.1927C19.6818 22.1927 20.4879 21.3309 21.0006 20.4207C21.1863 21.108 21.595 21.8138 22.4754 22.0961C22.6946 22.1667 22.9175 22.2001 23.1478 22.2001C23.5045 22.2001 23.8648 22.0887 24.1732 21.9475C24.6338 21.7395 25.0425 21.4386 25.3954 21.0745C25.778 20.677 26.0789 20.2758 26.2981 19.9377C26.443 20.7402 26.8442 21.7469 27.9364 22.0961C28.1519 22.1667 28.3859 22.2299 28.6125 22.2299C29.4929 22.2299 30.2768 21.6243 30.8786 20.9519C31.4953 21.7209 32.3349 22.1964 33.3491 22.1964C34.7236 22.1964 35.4666 21.7692 35.8158 21.0151C36.0721 21.6875 36.3767 22.2299 37.625 22.2299C38.7394 22.2299 39.5121 21.6355 40.0137 21.0262C40.6489 21.7395 41.4736 22.1964 42.4321 22.1964C44.6982 22.1964 46.6634 19.8709 46.6634 17.1775C46.6634 16.6612 46.6114 16.1671 46.4851 15.699C47.7928 14.5214 48.5952 13.1468 48.9147 11.4305C49.0967 10.2455 47.295 9.96684 47.1055 11.1482M14.8635 20.4281C13.9311 20.4281 13.1695 19.7223 13.1695 18.8567C13.1695 17.9911 13.9311 17.2853 14.8635 17.2853C15.796 17.2853 16.134 17.2853 16.134 18.6821C16.134 20.2164 15.5248 20.4281 14.8635 20.4281ZM33.5051 19.9266C32.7918 19.9266 31.6253 18.931 31.6253 17.3113C31.6253 15.6916 32.8104 14.6105 33.5051 14.6105C34.1998 14.6105 34.9576 15.5133 35.0691 16.9509V17.5602C34.9613 19.0202 34.1738 19.9229 33.5051 19.9229M42.4284 14.4025C42.9225 14.4025 43.3757 14.7405 43.7026 15.2792C42.863 15.6173 41.9231 15.7622 40.9535 15.6618C41.2842 14.9077 41.8266 14.4025 42.4247 14.4025M42.4284 20.2052C41.4959 20.2052 40.4297 18.8641 40.3777 17.497C41.3548 17.7496 43.1156 17.6233 44.2264 17.1664C44.2264 17.211 44.2264 17.2556 44.2264 17.3001C44.2264 18.8753 43.4017 20.2015 42.4284 20.2015" fill="#48B9B2"/>
<path d="M26.3761 11.2895C26.3761 11.791 26.781 12.1959 27.2825 12.1959C27.7841 12.1959 28.189 11.791 28.189 11.2895C28.189 10.788 27.7841 10.3831 27.2825 10.3831C26.781 10.3831 26.3761 10.788 26.3761 11.2895Z" fill="#48B9B2"/>
</svg>
